<?xml version="1.0" encoding="utf-8"?>
<!-- Generator: Adobe Illustrator 22.1.0, SVG Export Plug-In . SVG Version: 6.00 Build 0)  -->
<svg version="1.1" id="Layer_1" xmlns="http://www.w3.org/2000/svg" xmlns:xlink="http://www.w3.org/1999/xlink" x="0px" y="0px"
	 viewBox="0 0 125.6 66.9" style="enable-background:new 0 0 125.6 66.9;" xml:space="preserve">
<g>
	<path d="M38.7,41.3l0.2,0.2c-4.4,3.9-9.7,6.7-15.8,8.3c-4.9,5.6-9,9.7-12.2,12.2c-3.2,2.6-5.6,3.9-7,3.9c-0.8,0-1.5-0.3-2.1-0.8
		c-0.6-0.5-0.9-1.2-0.9-1.9c0-1.7,1.5-3.6,4.4-5.8c2.9-2.2,7.8-4.4,14.6-6.8c3.6-4.4,9.5-12.5,17.7-24.5c-1.7-0.2-3.1-0.9-4.2-2.1
		c-1.1-1.2-1.6-2.5-1.6-4c0-2.8,1.5-5.6,4.6-8.4c3.1-2.8,7.2-5.1,12.5-6.9C54.1,2.9,59.3,2,64.4,2c1.8,0,3.7,0.1,5.7,0.3v0.3
		C64.9,3.5,60,5.4,55.3,8.5s-9.5,8.9-14.8,17.4c3.1-0.1,6.1-1.3,9.1-3.7c3-2.4,5.2-5,6.7-8l0.3,0.1c-1.4,3.1-3.7,5.8-6.9,8.3
		c-3.2,2.4-6.3,3.7-9.4,3.7c-0.9,1.5-2.5,4-4.9,7.3l-4.5,6.2c-3.3,4.6-5.8,7.7-7.5,9.4c1.9-0.3,4.1-1,6.5-2.1s4.6-2.5,6.7-4.1
		L38.7,41.3z M19.5,51.1c-5.6,1.8-10.1,3.8-13.2,6c-3.2,2.2-4.8,4.2-4.8,6c0,0.6,0.2,1.1,0.7,1.5c0.4,0.4,1,0.6,1.8,0.6
		c0.9,0,2.2-0.5,3.8-1.6c1.6-1.1,4-3.4,7-6.9L19.5,51.1z M37.8,25.7c3.5-5.3,7.8-10.1,12.7-14.4c4.9-4.2,10.9-7.1,17.9-8.7
		c-1-0.2-2.3-0.3-3.7-0.3C59.3,2.3,54,3.2,48.9,5c-5.1,1.8-9.1,4.2-12.1,7.3s-4.5,5.8-4.5,8.2c0,1.3,0.6,2.5,1.7,3.6
		C35.2,25.2,36.5,25.7,37.8,25.7z"/>
	<path d="M108.2,41.3l0.2,0.2c-4,3.6-9.2,6.2-15.4,7.6c-2.8,3.4-4.9,5.7-6.1,6.8c-1.2,1.2-3,2.4-5.3,3.8c-2.3,1.4-4.6,2.4-6.8,3.1
		c-2.2,0.7-4.4,1-6.5,1c-1.7,0-2.9-0.3-3.7-0.8c-0.8-0.5-1.1-1.2-1.1-1.9c0-1.6,1.2-3.1,3.6-4.4c2.4-1.3,5.2-2.4,8.3-3.3L89,50
		c2.7-3.4,5.3-6.3,7.9-8.6l7.9-7.5c-5.8,4.1-10.8,6.8-14.9,8.1c-4.1,1.4-7.5,2-10.2,2c-2,0-3.8-0.7-5.2-2c-1.4-1.3-2.1-3-2.1-5.2
		c0-2.3,0.6-4.5,1.9-6.8c-1.1,0.1-2,0.1-2.8,0.1c-4.7,0-8.2-1-10.4-2.9c-2.2-1.9-3.4-4.2-3.4-6.8c0-4.6,2.4-8.7,7.3-12.4
		c4.8-3.7,12.8-5.8,24-6.5l0,0.3c-2.1,0-5.2,0.3-9.1,1C76,3.4,72.5,4.6,69.3,6.5c-3.2,1.9-5.7,4.2-7.7,6.9c-2,2.8-3,5.4-3,8
		c0,2.2,1.1,4.2,3.2,5.9c2.1,1.7,5,2.5,8.7,2.5c0.7,0,2.1-0.1,4-0.2c2.6-4.5,6.6-8.9,12.1-13.2c5.5-4.3,11.6-7.7,18.1-10.2
		c6.6-2.5,11.6-3.8,15.2-3.8c1.3,0,2.4,0.3,3.3,0.8c0.9,0.5,1.4,1.3,1.4,2.2c0,4.1-5.7,8.8-17,14.1C96.3,25,86.3,28.4,77.5,29.7
		c-2.5,3.6-3.8,6.7-3.8,9.2c0,1.4,0.6,2.6,1.8,3.5c1.2,0.9,2.6,1.3,4.3,1.3c3.3,0,7.3-1,12.2-2.9c4.9-1.9,10.4-5.5,16.7-10.6
		l0.3,0.5c-6.9,5.8-12.2,11.8-15.9,18c2-0.4,4.5-1.3,7.4-2.6C103.6,44.8,106.1,43.2,108.2,41.3z M88.6,50.5
		c-7.8,1.7-13.9,3.5-18.2,5.3c-4.3,1.8-6.5,3.6-6.5,5.5c0,0.7,0.4,1.2,1.1,1.6c0.7,0.4,1.8,0.6,3.1,0.6c3.1,0,6.2-0.8,9.3-2.5
		C80.5,59.3,84.2,55.8,88.6,50.5z M77.8,29.4c7-1.2,14.5-3.5,22.5-6.8c8.1-3.4,14.1-6.6,18-9.6c3.9-3,5.9-5.6,5.9-7.7
		c0-0.7-0.4-1.3-1.2-1.8c-0.8-0.5-1.9-0.7-3.2-0.7c-3.7,0-8.3,1.3-13.7,3.8c-5.4,2.5-10.9,6.1-16.6,10.7
		C83.9,21.9,80,25.9,77.8,29.4z"/>
</g>
</svg>
