<svg xmlns="http://www.w3.org/2000/svg" data-name="Layer 1" viewBox="0 0 100 125" x="0px" y="0px"><title>map pin place</title><path fill="#31a354" d="M64.49,71.41c-1.45,2.18-2.86,4.19-4.18,6a30.54,30.54,0,0,1,4.24,1.41,17.26,17.26,0,0,1,3.62,2,2.15,2.15,0,0,1,0,3.43,17.76,17.76,0,0,1-3.62,2A37.81,37.81,0,0,1,50,89a37.81,37.81,0,0,1-14.55-2.66,17.76,17.76,0,0,1-3.62-2,2.15,2.15,0,0,1,0-3.43,17.26,17.26,0,0,1,3.62-2,30.54,30.54,0,0,1,4.24-1.41c-1.32-1.81-2.73-3.82-4.18-6C24.57,73.44,17,77.67,17,82.57,17,89.44,31.79,95,50,95s33-5.56,33-12.43C83,77.67,75.43,73.44,64.49,71.41Z"/><path fill="#31a354" d="M50,5A25.7,25.7,0,0,0,24.3,30.7c0,19.34,21,46.05,25,51.05a.88.88,0,0,0,1.36,0c4.07-5,25-31.71,25-51A25.7,25.7,0,0,0,50,5Zm0,37.86A12.85,12.85,0,1,1,62.85,30,12.85,12.85,0,0,1,50,42.86Z"/></svg>